<svg width="8" height="5" viewBox="0 0 8 5" fill="none" xmlns="http://www.w3.org/2000/svg">
<path d="M4.47943 0.458837L7.63055 3.60994C7.67402 3.6534 7.70825 3.70194 7.73325 3.75554C7.75825 3.80915 7.77075 3.8666 7.77075 3.92786C7.77075 4.0504 7.72932 4.15685 7.64645 4.24724C7.5636 4.33762 7.45439 4.38281 7.31883 4.38281L0.680427 4.38281C0.54486 4.38281 0.435652 4.33719 0.352802 4.24594C0.269936 4.15467 0.228503 4.0482 0.228503 3.92654C0.228503 3.8961 0.275302 3.7905 0.368902 3.60974L3.51983 0.458812C3.59226 0.386378 3.66714 0.333495 3.74445 0.300161C3.82179 0.266828 3.90684 0.250161 3.99963 0.250161C4.09241 0.250161 4.17747 0.266828 4.2548 0.300162C4.33212 0.333495 4.40699 0.386387 4.47943 0.458837Z" fill="#9FA6B2"/>
</svg>
